<?xml version="1.0" encoding="UTF-8"?><svg id="Layer_2" xmlns="http://www.w3.org/2000/svg" viewBox="0 0 4013.29 4013.29"><defs><style>.cls-1{fill:#f17a8e;}.cls-2{fill:#ee3f23;}</style></defs><g id="Content"><path class="cls-1" d="M2495.87,2764.24c-132.83,115.66-276.76,221.55-439.9,287.76-160.84,65.22-342.55,89.38-509.39,42.39-314.63,200.11-545.13,500.19-777.69,793.7H125.19v-814.49c28.01-23.82,55.78-47.89,83.3-72.29,200.85-177.6,389.7-373.03,538.06-595.15,94.63-97.92,125.77-240.77,139.9-376.48,14.29-137.68,16.18-279.87,70.23-407.2,69-162.16,214.81-279.46,368.51-365.64,153.86-86.09,320.62-148.03,471.19-239.46,25.14-15.36,50.36-31.63,78.62-39.76,89.78-26.21,184.17,37.29,232.97,116.98,48.79,79.77,66.29,174.15,100.22,261.31,51.09,131.44,139.89,246.69,181.79,381.41.49,1.73,1.15,3.45,1.64,5.34.17.41.33.82.41,1.31,11.75,41.98,13.72,93.24-11.34,123.8l-.08.08c-8.87,10.93-21.27,19.14-37.79,23.33-15.03,3.7-30.72,2.71-45.83-.33-134.07-26.78-245.37-121.25-322.76-233.13-74.43-107.53-121.5-231.24-167.83-353.64-30.15,67.69-62.1,137.84-118.29,186.23-40.34,34.67-90.36,55.86-134.8,85.02-123.47,81.08-205.78,225.41-346.41,270.59,41.57-6.16,82.56-16.59,122.07-31.05l274.45,274.45c4.44,181.79-16.1,364.16-61.53,540.28,94.06-96.77,144.25-234.61,134.31-369.17,99.07,172.02,147.37,372.54,137.6,570.67,11.17-181.3,6.9-363.5-12.65-544.06l111.15,111.15c1.07,31.13,7.47,61.61,20.95,89.79,30.64,64.32,106.87,110.08,174.56,88.14,38.45,159.69,238.88,256.96,388.06,188.12Z"/><path class="cls-2" d="M2409.45,1832.53c.82,18.32-12.65,32.37-28.75,35.24-7.48,1.4-15.61.33-23.17-3.86-20.54-11.5-39.84-25.14-58.24-40.25-36.8-30.31-69.58-66.7-99.89-103.59-13.3-16.18-26.61-32.94-33.84-52.66-7.31-19.63-7.73-42.96,3.78-60.54,13.55-20.54,39.35-28.42,63.17-34.91,15.2-4.11,32.53-7.64,48.06-6.24,5.58.49,10.6,3.37,13.96,7.8,3.61,4.93,7.31,9.86,7.31,9.86,33.52,45.18,60.13,85.43,81.57,137.43,2.96,7.15,5.67,14.46,8.21,21.85.17.41.33.82.41,1.31,9.78,28.59,16.02,58.57,17.42,88.55Z"/><path class="cls-1" d="M2820.6,2396.39c-1.48,14.38-4.93,28.51-9.86,42.06-3.45,9.61-7.64,18.98-12.24,28.01-38.03,75-106.87,131.52-184.01,165.12-77.06,33.52-162.08,45.43-246.11,46.5-17.83.25-36.14-.08-52.66-6.82-15.2-6.24-27.85-17.58-37.87-30.56-28.09-36.31-35.73-88.55-15.61-129.87,116.98-44.85,256.96-100.79,371.8-150.9,50.36-21.93,89.05-67.53,125.6-108.6,40.58,36.31,66.29,90.94,60.95,145.07Z"/><path class="cls-1" d="M2806.14,2048.83c-13.3,72.95-86.58,116.73-153.12,149.59-120.51,59.39-243.24,114.27-367.86,164.38-78.12,31.38-227.22,118.29-269.36,65.14-42.47-53.72,101.04-193.37,168.4-258.43,75.83-73.27,152.47-147.21,241.76-203.4,89.29-56.19,193.46-94.14,298.77-88.06,13.47.82,27.52,2.46,38.86,9.86,17.42,11.26,24.4,32.86,29.9,52.99.16.66.32,1.31.49,1.89,9.28,34.67,18.56,70.73,12.15,106.05Z"/><path class="cls-1" d="M2273.75,1966.93c-67.86,30.15-130.95,70.97-186.31,120.51-43.21,38.69-107.61,42.39-155.18,9.28-30.81-21.44-61.45-42.96-92.09-64.57-8.62-9.2-22.59-24.64-19.06-31.22,41.98-77.3,95.54-148.27,158.46-209.8,1.15-1.07,2.38-2.22,3.86-2.55,3.12-.74,5.84,1.89,7.81,4.27,12.65,14.79,25.3,29.74,38.2,44.28,25.47,28.75,52.25,56.19,83.05,78.94,27.44,20.29,58.73,36.64,91.67,45.26,22.75,6,46.17,8.3,69.58,5.59Z"/><path class="cls-1" d="M2723.17,1587.08c-9.37,54.71-53.15,97.34-100.06,127.08-45.75,29.08-96.69,50.03-139.57,83.05,2.21-34.91-10.85-67.36-23.66-99.15-25.3-62.43-50.6-124.86-75.9-187.3-1.56-3.94-3.2-8.21-2.05-12.32.9-3.45,3.7-6.08,6.41-8.54,41.9-37.79,89.87-68.92,141.46-91.68,29.49-12.98,63.74-22.92,94.14-16.43,8.46,1.81,16.67,4.85,24.32,9.53,23.66,14.38,37.13,40.58,48.39,65.96,18.23,40.91,34.17,85.6,26.53,129.79Z"/><path class="cls-1" d="M2489.79,1280.01c-12.82,14.7-29.9,24.81-45.51,36.47-17.91,13.39-34.01,28.09-50.11,40.99-37.7,30.15-93.32,12.16-109.09-33.6-.08-.16-.16-.33-.16-.41-29.41-68.67-26.86-74.59-48.22-146.14-11.42-38.36-22.92-76.72-34.34-115.09-.65-2.3-1.4-4.68-.65-6.98.65-1.97,2.3-3.45,3.94-4.77,25.46-20.95,60.29-28.18,93.15-24.89,15.77,1.56,31.13,5.34,46.08,10.52,16.18,5.59,31.96,12.82,47.15,20.78,41.57,21.77,81.57,50.27,104.41,91.27,22.84,40.99,24.23,96.6-6.65,131.85Z"/><path class="cls-1" d="M1914.1,1715.15c-36.39,32.2-68.34,69.41-94.55,110.32-12.57,19.55-26.95,42.06-49.95,45.35-15.61,2.22-31.46-5.83-42.14-17.5-10.68-11.66-17.09-26.53-22.59-41.4-16.59-45.18-26.62-93.48-46.99-136.61-5.34-11.34-11.5-22.34-18.56-32.86-2.47-3.61-5.09-7.31-5.51-11.67-.9-9.36,8.46-16.18,16.76-20.62,51.34-27.19,108.03-44.03,165.86-49.37,17.08,59.31,51.5,113.53,97.67,154.35Z"/><path class="cls-2" d="M0,0v4013.29h4013.29V0H0ZM3888.1,2282.7l-548.99,549.07-387.41-394.96s-4.6-4.52-9.04-8.87c-114.92,231.16-332.12,299.43-513.66,462.65,12.24,12.4,24.48,24.64,24.48,24.64l397.26,404.9-567.88,567.96H125.19V1753.92l571.33-571.33,217.36,217.36s16.18,16.18,32.45,32.45c104-92.91,220.89-171.36,346.25-232.48,88.72-43.29,181.96-78.12,263.45-134.47-20.37-20.21-40.66-40.66-40.66-40.66l-330.56-330.48L1754,125.11h2134.1v2157.59Z"/><path class="cls-2" d="M1994.69,2228.97c-20.45,53.97-44.94,106.46-73.52,156.49l-7.23,14.38-1.64-1.64-111.15-111.15-197.73-197.73-274.45-274.45-6.41-6.41c92.58-51.67,241.6-168.4,241.6-168.4-6,107.53,45.59,210.13,107.44,298.44,83.96,119.77,191.73,225.82,323.08,290.47Z"/></g></svg>